<svg width="190" height="72" viewBox="0 0 190 72" fill="none" xmlns="http://www.w3.org/2000/svg">
<path d="M182.358 35.9058C181.257 35.9058 180.258 35.6788 179.363 35.2248C178.467 34.7708 177.689 34.158 177.028 33.3862C176.382 32.5993 175.882 31.7216 175.53 30.7531C175.178 29.7695 175.001 28.7632 175.001 27.7341C175.001 26.6597 175.185 25.6383 175.552 24.6698C175.934 23.6862 176.455 22.816 177.116 22.0594C177.791 21.2876 178.577 20.6823 179.473 20.2435C180.368 19.7895 181.345 19.5625 182.402 19.5625C183.504 19.5625 184.502 19.7971 185.398 20.2662C186.294 20.7353 187.064 21.3633 187.711 22.1502C188.357 22.9371 188.856 23.8148 189.208 24.7833C189.561 25.7518 189.737 26.743 189.737 27.7568C189.737 28.8313 189.553 29.8603 189.186 30.8439C188.819 31.8124 188.298 32.6825 187.622 33.4543C186.962 34.2109 186.183 34.8087 185.288 35.2475C184.392 35.6864 183.415 35.9058 182.358 35.9058ZM177.006 27.7341C177.006 28.5513 177.131 29.3458 177.38 30.1175C177.645 30.8742 178.012 31.5476 178.482 32.1378C178.951 32.7279 179.517 33.197 180.178 33.5451C180.838 33.8931 181.573 34.0672 182.38 34.0672C183.217 34.0672 183.966 33.8856 184.627 33.5224C185.288 33.1592 185.846 32.675 186.301 32.0697C186.771 31.4643 187.123 30.7834 187.358 30.0267C187.608 29.2701 187.733 28.5059 187.733 27.7341C187.733 26.917 187.6 26.1301 187.336 25.3734C187.086 24.6168 186.719 23.9434 186.235 23.3532C185.765 22.7479 185.2 22.2788 184.539 21.9459C183.893 21.5978 183.173 21.4238 182.38 21.4238C181.543 21.4238 180.794 21.6054 180.133 21.9686C179.473 22.3166 178.907 22.7933 178.437 23.3986C177.982 24.0039 177.63 24.6849 177.38 25.4415C177.131 26.183 177.006 26.9472 177.006 27.7341Z" fill="#757687"/>
<path d="M154.219 23.444V35.7923H152.236V19.676H153.91L163.47 32.2739V19.6987H165.452V35.7923H163.646L154.219 23.444ZM160.254 17.338C159.814 17.338 159.439 17.2623 159.131 17.111C158.822 16.9445 158.536 16.7857 158.272 16.6343C158.022 16.4679 157.736 16.3846 157.413 16.3846C157.09 16.3846 156.847 16.4679 156.686 16.6343C156.539 16.8008 156.443 16.9748 156.399 17.1564C156.355 17.338 156.333 17.4439 156.333 17.4742H155.188C155.188 17.3834 155.217 17.2169 155.276 16.9748C155.35 16.7176 155.467 16.4527 155.629 16.1803C155.79 15.8928 156.01 15.6507 156.289 15.454C156.568 15.2421 156.928 15.1362 157.369 15.1362C157.794 15.1362 158.147 15.2194 158.426 15.3859C158.72 15.5372 158.999 15.6961 159.263 15.8626C159.542 16.029 159.858 16.1123 160.21 16.1123C160.592 16.1123 160.863 16.029 161.025 15.8626C161.201 15.681 161.311 15.4994 161.355 15.3178C161.414 15.1362 161.443 15.0303 161.443 15H162.589C162.589 15.0908 162.552 15.2573 162.479 15.4994C162.42 15.7415 162.302 16.0063 162.126 16.2938C161.95 16.5814 161.708 16.8311 161.399 17.0429C161.106 17.2396 160.724 17.338 160.254 17.338Z" fill="#757687"/>
<path d="M142.689 33.9764V35.7923H132.072V19.676H142.49V21.4919H134.054V26.7127H141.389V28.4151H134.054V33.9764H142.689Z" fill="#757687"/>
<path d="M121.007 23.0581C120.83 22.8463 120.595 22.642 120.302 22.4453C120.008 22.2486 119.678 22.0745 119.311 21.9232C118.943 21.7567 118.54 21.6281 118.099 21.5373C117.673 21.4314 117.225 21.3784 116.756 21.3784C115.551 21.3784 114.663 21.613 114.09 22.0821C113.518 22.5512 113.231 23.1943 113.231 24.0115C113.231 24.5865 113.378 25.0405 113.672 25.3734C113.966 25.7064 114.413 25.9788 115.015 26.1906C115.632 26.4025 116.41 26.6219 117.35 26.8489C118.437 27.091 119.377 27.3861 120.17 27.7341C120.963 28.0822 121.572 28.5513 121.998 29.1415C122.424 29.7165 122.637 30.4883 122.637 31.4568C122.637 32.2285 122.49 32.902 122.196 33.477C121.917 34.0369 121.521 34.506 121.007 34.8843C120.493 35.2475 119.891 35.5199 119.2 35.7015C118.51 35.868 117.761 35.9512 116.954 35.9512C116.161 35.9512 115.383 35.868 114.619 35.7015C113.87 35.5199 113.158 35.2626 112.482 34.9297C111.807 34.5968 111.176 34.1807 110.588 33.6813L111.535 31.9562C111.77 32.2134 112.071 32.4707 112.438 32.7279C112.82 32.97 113.246 33.197 113.716 33.4089C114.2 33.6208 114.722 33.7948 115.28 33.931C115.838 34.052 116.41 34.1126 116.998 34.1126C118.114 34.1126 118.98 33.9083 119.597 33.4997C120.214 33.076 120.522 32.4631 120.522 31.6611C120.522 31.0558 120.346 30.5715 119.993 30.2083C119.656 29.8452 119.149 29.5425 118.474 29.3004C117.798 29.0583 116.976 28.8161 116.007 28.574C114.949 28.3016 114.061 28.0065 113.341 27.6887C112.622 27.3558 112.079 26.9245 111.711 26.3949C111.359 25.8653 111.183 25.1767 111.183 24.3293C111.183 23.3003 111.425 22.4301 111.91 21.7189C112.394 21.0077 113.062 20.4705 113.914 20.1073C114.766 19.7441 115.728 19.5625 116.8 19.5625C117.504 19.5625 118.158 19.6382 118.76 19.7895C119.377 19.9408 119.949 20.1527 120.478 20.4251C121.007 20.6974 121.491 21.0228 121.932 21.4011L121.007 23.0581Z" fill="#757687"/>
<path d="M99.2717 35.7923V19.676H101.254V35.7923H99.2717Z" fill="#757687"/>
<path d="M76.6766 35.7923V19.676H82.0951C83.7691 19.676 85.1641 20.0392 86.2801 20.7655C87.4108 21.4768 88.2551 22.4453 88.8131 23.671C89.3711 24.8816 89.6501 26.2284 89.6501 27.7114C89.6501 29.3458 89.3418 30.7682 88.725 31.9789C88.1083 33.1895 87.2346 34.1277 86.1039 34.7935C84.9732 35.4594 83.637 35.7923 82.0951 35.7923H76.6766ZM87.6457 27.7114C87.6457 26.5008 87.4255 25.4264 86.985 24.4882C86.5591 23.55 85.935 22.816 85.1127 22.2864C84.2904 21.7567 83.2845 21.4919 82.0951 21.4919H78.659V33.9764H82.0951C83.2992 33.9764 84.3124 33.704 85.1347 33.1592C85.9571 32.5993 86.5811 31.8502 87.007 30.912C87.4328 29.9586 87.6457 28.8918 87.6457 27.7114Z" fill="#757687"/>
<path d="M187.268 47.2564C187.178 46.4387 186.809 45.8053 186.161 45.3562C185.513 44.9013 184.697 44.6738 183.714 44.6738C183.01 44.6738 182.401 44.789 181.887 45.0193C181.373 45.2439 180.973 45.5548 180.688 45.9521C180.409 46.3437 180.269 46.79 180.269 47.2909C180.269 47.7113 180.364 48.074 180.554 48.3792C180.75 48.6844 181.004 48.9406 181.317 49.1479C181.635 49.3495 181.976 49.5193 182.339 49.6575C182.703 49.79 183.052 49.8994 183.387 49.9857L185.063 50.4349C185.611 50.5731 186.172 50.7602 186.748 50.9963C187.323 51.2324 187.857 51.5433 188.349 51.9291C188.84 52.3149 189.237 52.7929 189.539 53.3629C189.846 53.933 190 54.6153 190 55.41C190 56.4119 189.748 57.3015 189.246 58.0789C188.748 58.8562 188.025 59.4695 187.075 59.9186C186.131 60.3677 184.988 60.5923 183.647 60.5923C182.362 60.5923 181.25 60.3821 180.311 59.9618C179.372 59.5414 178.638 58.9455 178.107 58.1739C177.576 57.3965 177.283 56.4752 177.227 55.41H179.825C179.875 56.0491 180.076 56.5817 180.428 57.0078C180.786 57.4282 181.241 57.742 181.795 57.9493C182.353 58.1508 182.965 58.2516 183.63 58.2516C184.362 58.2516 185.013 58.1336 185.583 57.8975C186.158 57.6556 186.611 57.3217 186.941 56.8956C187.27 56.4637 187.435 55.9599 187.435 55.384C187.435 54.86 187.29 54.4311 186.999 54.0971C186.714 53.7631 186.326 53.4867 185.834 53.2679C185.348 53.0491 184.798 52.8562 184.183 52.6892L182.155 52.1192C180.78 51.7334 179.691 51.1662 178.886 50.4176C178.087 49.669 177.688 48.6786 177.688 47.4464C177.688 46.4272 177.956 45.5376 178.492 44.7775C179.029 44.0174 179.755 43.4272 180.672 43.0068C181.588 42.5807 182.622 42.3677 183.773 42.3677C184.935 42.3677 185.96 42.5778 186.849 42.9982C187.743 43.4185 188.447 43.9972 188.961 44.7343C189.475 45.4656 189.743 46.3063 189.765 47.2564H187.268Z" fill="#2B75FF"/>
<path d="M160.608 60.2986H157.859L164.036 42.6095H167.028L173.205 60.2986H170.456L165.603 45.8226H165.469L160.608 60.2986ZM161.069 53.3715H169.987V55.6172H161.069V53.3715Z" fill="#2B75FF"/>
<path d="M153.02 42.6095V60.2986H150.64L141.915 47.3254H141.756V60.2986H139.166V42.6095H141.563L150.296 55.6H150.455V42.6095H153.02Z" fill="#2B75FF"/>
<path d="M133.034 42.6095V60.2986H130.444V42.6095H133.034Z" fill="#2B75FF"/>
<path d="M122.022 48.1978C121.86 47.6738 121.642 47.2045 121.368 46.79C121.1 46.3696 120.779 46.0126 120.405 45.7189C120.03 45.4195 119.603 45.1921 119.122 45.0366C118.647 44.8811 118.125 44.8034 117.555 44.8034C116.588 44.8034 115.717 45.0596 114.94 45.5721C114.163 46.0846 113.549 46.836 113.096 47.8264C112.649 48.8111 112.426 50.0174 112.426 51.4454C112.426 52.8792 112.652 54.0913 113.104 55.0817C113.557 56.0721 114.177 56.8236 114.965 57.3361C115.753 57.8485 116.65 58.1048 117.656 58.1048C118.589 58.1048 119.402 57.909 120.094 57.5174C120.793 57.1259 121.332 56.5731 121.712 55.8591C122.098 55.1393 122.29 54.2929 122.29 53.3197L122.961 53.4493H118.049V51.2468H124.796V53.2593C124.796 54.7449 124.489 56.0347 123.874 57.1288C123.265 58.2171 122.422 59.0578 121.343 59.6509C120.271 60.2439 119.041 60.5405 117.656 60.5405C116.102 60.5405 114.739 60.172 113.565 59.4349C112.398 58.6979 111.487 57.6528 110.833 56.2996C110.179 54.9407 109.853 53.3284 109.853 51.4627C109.853 50.052 110.043 48.7852 110.422 47.6623C110.802 46.5395 111.336 45.5865 112.023 44.8034C112.716 44.0145 113.529 43.4128 114.462 42.9982C115.401 42.5778 116.426 42.3677 117.538 42.3677C118.466 42.3677 119.329 42.5088 120.128 42.7909C120.933 43.0731 121.648 43.4732 122.274 43.9915C122.905 44.5097 123.427 45.1258 123.841 45.8399C124.254 46.5481 124.534 47.3341 124.679 48.1978H122.022Z" fill="#2B75FF"/>
<path d="M93.7764 60.2986H91.0273L97.2044 42.6095H100.196L106.374 60.2986H103.624L98.7717 45.8226H98.6376L93.7764 60.2986ZM94.2374 53.3715H103.155V55.6172H94.2374V53.3715Z" fill="#2B75FF"/>
<path d="M76.6903 60.2986V42.6095H82.8087C84.1441 42.6095 85.2504 42.86 86.1277 43.3609C87.0049 43.8619 87.6614 44.5471 88.0973 45.4166C88.5331 46.2803 88.751 47.2535 88.751 48.336C88.751 49.4243 88.5303 50.4032 88.0889 51.2727C87.6531 52.1364 86.9937 52.8216 86.1109 53.3283C85.2337 53.8293 84.1301 54.0798 82.8003 54.0798H78.5929V51.8168H82.5656C83.4093 51.8168 84.0938 51.6671 84.619 51.3677C85.1443 51.0625 85.5298 50.6479 85.7756 50.1239C86.0215 49.5999 86.1444 49.004 86.1444 48.336C86.1444 47.6681 86.0215 47.075 85.7756 46.5567C85.5298 46.0385 85.1415 45.6325 84.6106 45.3389C84.0854 45.0452 83.3926 44.8984 82.5321 44.8984H79.2801V60.2986H76.6903Z" fill="#2B75FF"/>
<path d="M71.5061 0.146624V56.4012C71.5061 64.661 64.7962 71.3568 56.5192 71.3568H0V14.027C0 6.30482 6.26903 0 14.0563 0H71.3591C71.4571 0 71.5061 0.0488745 71.5061 0.146624Z" fill="#F3FEFF" fill-opacity="0.22"/>
<path d="M36.6152 12.374C33.8235 12.374 31.0318 12.8627 28.3871 13.7913C24.8118 15.1109 21.5793 17.1637 18.8856 19.8518C12.7145 26.0588 11.735 33.781 11.4901 36.3714C11.5391 48.0035 11.5391 59.5868 11.5881 71.2189H21.5303V53.0376L25.9872 48.6877C20.061 42.5784 20.061 32.9013 25.9872 26.8408C31.6685 20.927 40.9251 20.7804 46.8024 26.401C46.9493 26.5476 47.0962 26.6453 47.1942 26.792L54.2958 19.8518C49.643 15.0621 43.276 12.374 36.6152 12.374Z" fill="#454655"/>
<path d="M61.2686 3.53546H51.3264V21.7168L46.8695 26.1155C52.7957 32.2248 52.7957 41.902 46.8695 47.9624C41.2372 53.7785 31.8826 53.9251 26.0544 48.3045C25.9564 48.2068 25.8095 48.0602 25.7115 47.9624L18.5609 54.9026C28.0624 64.6286 43.686 64.873 53.4324 55.3913C53.5793 55.2447 53.7752 55.0492 53.9221 54.9026C58.1341 50.6016 60.6809 44.9322 61.0727 38.9206H61.2197L61.2686 3.53546Z" fill="url(#paint0_linear_1009_12)"/>
<defs>
<linearGradient id="paint0_linear_1009_12" x1="33.4829" y1="60.6597" x2="40" y2="2" gradientUnits="userSpaceOnUse">
<stop stop-color="#4877E9"/>
<stop offset="1" stop-color="#00F4F3"/>
</linearGradient>
</defs>
</svg>
